<svg xmlns="http://www.w3.org/2000/svg" xmlns:xlink="http://www.w3.org/1999/xlink" width="500" zoomAndPan="magnify" viewBox="0 0 375 374.999991" height="500" preserveAspectRatio="xMidYMid meet" version="1.0"><defs><g/></defs><g fill="#78c98b" fill-opacity="1"><g transform="translate(37.017228, 235.124977)"><g><path d="M 49.3125 0.140625 C 47.125 0.503906 45 0.773438 42.9375 0.953125 C 40.882812 1.140625 38.945312 1.234375 37.125 1.234375 C 29 1.234375 22.601562 -0.84375 17.9375 -5 C 13.28125 -9.15625 10.953125 -16.023438 10.953125 -25.609375 L 10.953125 -54.796875 L 1.234375 -54.796875 L 1.234375 -73.28125 L 10.953125 -73.28125 L 10.953125 -87.390625 L 32.46875 -89.3125 L 32.46875 -73.28125 L 47.9375 -73.28125 L 47.9375 -54.796875 L 32.46875 -54.796875 L 32.46875 -25.609375 C 32.46875 -22.328125 33.492188 -20.066406 35.546875 -18.828125 C 37.597656 -17.597656 39.90625 -16.984375 42.46875 -16.984375 C 44.476562 -16.984375 46.53125 -17.210938 48.625 -17.671875 Z M 49.3125 0.140625 "/></g></g></g><g fill="#78c98b" fill-opacity="1"><g transform="translate(89.617292, 235.124977)"><g><path d="M 24.390625 -69.171875 C 26.753906 -71.460938 29.285156 -73.109375 31.984375 -74.109375 C 34.679688 -75.109375 37.535156 -75.609375 40.546875 -75.609375 C 43.015625 -75.609375 45.800781 -75.242188 48.90625 -74.515625 L 48.625 -54.25 C 46.25 -54.976562 43.832031 -55.34375 41.375 -55.34375 C 38.8125 -55.34375 36.320312 -54.835938 33.90625 -53.828125 C 31.488281 -52.828125 29.5 -51.296875 27.9375 -49.234375 C 26.382812 -47.179688 25.609375 -44.46875 25.609375 -41.09375 L 25.609375 0 L 4.109375 0 L 4.109375 -74.109375 L 23.5625 -74.109375 Z M 24.390625 -69.171875 "/></g></g></g><g fill="#78c98b" fill-opacity="1"><g transform="translate(141.532461, 235.124977)"><g><path d="M 37.8125 -75.34375 C 41.457031 -75.34375 44.96875 -74.632812 48.34375 -73.21875 C 51.726562 -71.800781 54.609375 -69.539062 56.984375 -66.4375 L 56.984375 -74.109375 L 78.484375 -74.109375 L 78.484375 0 L 56.984375 0 L 56.984375 -7.390625 C 54.429688 -4.285156 51.441406 -2.117188 48.015625 -0.890625 C 44.585938 0.335938 41.09375 0.953125 37.53125 0.953125 C 29.769531 0.953125 23.238281 -0.867188 17.9375 -4.515625 C 12.644531 -8.171875 8.648438 -12.988281 5.953125 -18.96875 C 3.265625 -24.945312 1.921875 -31.316406 1.921875 -38.078125 C 1.921875 -44.835938 3.242188 -51.046875 5.890625 -56.703125 C 8.535156 -62.367188 12.503906 -66.890625 17.796875 -70.265625 C 23.097656 -73.648438 29.769531 -75.34375 37.8125 -75.34375 Z M 40.140625 -19.71875 C 43.242188 -19.71875 46.070312 -20.515625 48.625 -22.109375 C 51.1875 -23.710938 53.21875 -25.863281 54.71875 -28.5625 C 56.226562 -31.257812 56.984375 -34.25 56.984375 -37.53125 C 56.984375 -40.820312 56.226562 -43.835938 54.71875 -46.578125 C 53.21875 -49.316406 51.1875 -51.484375 48.625 -53.078125 C 46.070312 -54.679688 43.242188 -55.484375 40.140625 -55.484375 C 36.484375 -55.484375 33.421875 -54.613281 30.953125 -52.875 C 28.492188 -51.132812 26.644531 -48.894531 25.40625 -46.15625 C 24.175781 -43.414062 23.5625 -40.539062 23.5625 -37.53125 C 23.5625 -34.613281 24.175781 -31.785156 25.40625 -29.046875 C 26.644531 -26.304688 28.492188 -24.066406 30.953125 -22.328125 C 33.421875 -20.585938 36.484375 -19.71875 40.140625 -19.71875 Z M 40.140625 -19.71875 "/></g></g></g><g fill="#78c98b" fill-opacity="1"><g transform="translate(225.364067, 235.124977)"><g><path d="M 51.375 -7.53125 C 48.8125 -4.332031 45.769531 -2.117188 42.25 -0.890625 C 38.738281 0.335938 35.066406 0.953125 31.234375 0.953125 C 24.015625 0.953125 18.394531 -0.597656 14.375 -3.703125 C 10.363281 -6.804688 7.582031 -10.957031 6.03125 -16.15625 C 4.476562 -21.363281 3.703125 -27.070312 3.703125 -33.28125 L 3.703125 -74.109375 L 25.484375 -74.109375 L 25.484375 -33.421875 C 25.484375 -28.304688 26.691406 -24.539062 29.109375 -22.125 C 31.523438 -19.707031 34.195312 -18.5 37.125 -18.5 C 40.320312 -18.5 43.3125 -19.820312 46.09375 -22.46875 C 48.875 -25.113281 50.265625 -28.898438 50.265625 -33.828125 L 50.265625 -74.109375 L 73.15625 -74.109375 L 73.15625 0 L 51.375 0 Z M 51.375 -7.53125 "/></g></g></g><g fill="#78c98b" fill-opacity="1"><g transform="translate(303.853422, 235.124977)"><g><path d="M 25.203125 -95.890625 L 25.203125 0 L 3.28125 0 L 3.28125 -95.890625 Z M 25.203125 -95.890625 "/></g></g></g></svg>