<svg xmlns="http://www.w3.org/2000/svg" xmlns:xlink="http://www.w3.org/1999/xlink" width="252" zoomAndPan="magnify" viewBox="0 0 189 152.249993" height="203" preserveAspectRatio="xMidYMid meet" version="1.0"><defs><g/><clipPath id="3191929e87"><path d="M 32.304688 0 L 140.519531 0 L 140.519531 83.558594 L 32.304688 83.558594 Z M 32.304688 0 " clip-rule="nonzero"/></clipPath></defs><g clip-path="url(#3191929e87)"><path fill="#008dda" d="M 133.382812 33.984375 L 133.382812 24.878906 C 133.382812 21.085938 130.28125 17.984375 126.488281 17.984375 L 64.699219 17.984375 L 108.925781 13.160156 L 108.925781 5.132812 C 108.925781 3.554688 108.242188 2.195312 106.976562 1.25 C 105.707031 0.308594 104.207031 0.0429688 102.695312 0.5 L 48.039062 16.949219 C 45.960938 17.574219 44.59375 19.410156 44.59375 21.582031 L 44.59375 37.183594 L 63.164062 37.183594 C 66.347656 37.183594 68.949219 39.785156 68.949219 42.964844 C 68.949219 46.148438 66.347656 48.75 63.164062 48.75 L 38.089844 48.75 C 34.90625 48.753906 32.304688 51.355469 32.304688 54.539062 C 32.304688 57.71875 34.90625 60.324219 38.089844 60.324219 L 79.507812 60.324219 C 82.691406 60.324219 85.292969 62.925781 85.292969 66.105469 C 85.292969 69.289062 82.691406 71.890625 79.507812 71.890625 L 62.660156 71.890625 C 59.476562 71.890625 56.875 74.496094 56.875 77.675781 C 56.875 80.859375 59.480469 83.460938 62.660156 83.460938 L 126.488281 83.460938 C 130.277344 83.460938 133.378906 80.359375 133.378906 76.570312 L 133.378906 67.460938 L 120.59375 67.460938 C 119.464844 67.460938 118.542969 66.539062 118.542969 65.410156 C 118.542969 64.28125 119.464844 63.359375 120.59375 63.359375 L 136.953125 63.359375 C 139.105469 63.359375 140.863281 61.601562 140.863281 59.449219 L 140.863281 41.996094 C 140.863281 39.84375 139.109375 38.085938 136.953125 38.085938 L 113.507812 38.085938 C 112.378906 38.085938 111.457031 37.164062 111.457031 36.035156 C 111.457031 34.90625 112.378906 33.984375 113.507812 33.984375 Z M 112.882812 47.136719 C 110.898438 47.136719 109.292969 48.742188 109.292969 50.726562 C 109.292969 52.707031 110.898438 54.316406 112.882812 54.316406 C 114.867188 54.316406 116.472656 52.707031 116.472656 50.726562 C 116.472656 48.742188 114.867188 47.136719 112.882812 47.136719 Z M 104.347656 50.722656 C 104.347656 46.03125 108.1875 42.191406 112.882812 42.191406 L 136.761719 42.191406 L 136.761719 59.257812 L 112.882812 59.257812 C 108.191406 59.257812 104.347656 55.417969 104.347656 50.722656 Z M 104.347656 50.722656 " fill-opacity="1" fill-rule="evenodd"/></g><g fill="#01314b" fill-opacity="1"><g transform="translate(22.124052, 125.206757)"><g><path d="M 11.484375 0 L 18.734375 0 L 18.734375 -25.113281 L 28.851562 -25.113281 L 28.851562 -31.90625 L 1.367188 -31.90625 L 1.367188 -25.113281 L 11.484375 -25.113281 Z M 11.484375 0 "/></g></g></g><g fill="#01314b" fill-opacity="1"><g transform="translate(49.51243, 125.206757)"><g><path d="M 3.828125 0 L 11.074219 0 L 11.074219 -9.9375 L 15.859375 -9.9375 L 21.558594 0 L 29.945312 0 L 23.335938 -11.074219 C 27.164062 -12.761719 29.398438 -16.226562 29.398438 -20.921875 C 29.398438 -27.710938 24.75 -31.90625 17.457031 -31.90625 L 3.828125 -31.90625 Z M 10.984375 -16.042969 L 10.984375 -25.707031 L 16.5 -25.707031 C 20.054688 -25.707031 22.058594 -23.972656 22.058594 -20.875 C 22.058594 -17.777344 20.054688 -16.042969 16.5 -16.042969 Z M 10.984375 -16.042969 "/></g></g></g><g fill="#01314b" fill-opacity="1"><g transform="translate(78.769281, 125.206757)"><g><path d="M 0.410156 0 L 8.160156 0 L 10.300781 -5.515625 L 22.972656 -5.515625 L 25.113281 0 L 32.863281 0 L 20.191406 -31.90625 L 13.082031 -31.90625 Z M 12.167969 -11.210938 L 16.636719 -22.878906 L 21.148438 -11.210938 Z M 12.167969 -11.210938 "/></g></g></g><g fill="#01314b" fill-opacity="1"><g transform="translate(109.211019, 125.206757)"><g><path d="M 16.863281 0.636719 C 25.160156 0.636719 30.21875 -4.558594 30.21875 -13.125 L 30.21875 -31.90625 L 22.972656 -31.90625 L 22.972656 -13.628906 C 22.972656 -8.75 20.921875 -6.246094 16.863281 -6.246094 C 12.808594 -6.246094 10.757812 -8.75 10.757812 -13.628906 L 10.757812 -31.90625 L 3.507812 -31.90625 L 3.507812 -13.125 C 3.507812 -4.558594 8.570312 0.636719 16.863281 0.636719 Z M 16.863281 0.636719 "/></g></g></g><g fill="#01314b" fill-opacity="1"><g transform="translate(140.108481, 125.206757)"><g><path d="M 3.828125 0 L 25.023438 0 L 25.023438 -6.792969 L 11.074219 -6.792969 L 11.074219 -31.90625 L 3.828125 -31.90625 Z M 3.828125 0 "/></g></g></g></svg>